HIERARCHY
ROOT root_translation_joint
{
	OFFSET	0	0	0
	CHANNELS 6 Xposition Yposition Zposition Zrotation Xrotation Yrotation
	JOINT Spine_x_joint
	{
		OFFSET	0	0	0.909008
		CHANNELS 3  Zrotation Xrotation Yrotation
		JOINT Head_x_joint
		{
			OFFSET	0	0	1.59751
			CHANNELS 3  Zrotation Xrotation Yrotation
			JOINT Headendsite_x_joint
			{
				OFFSET	0	0	0.452755
				CHANNELS 3  Zrotation Xrotation Yrotation
				End Site
				{
					OFFSET	0	0	0.0001
				}
			}
		}
		JOINT LeftShoulder_x_joint
		{
			OFFSET	0	0	1.25984
			CHANNELS 3  Zrotation Xrotation Yrotation
			JOINT LeftArm_x_joint
			{
				OFFSET	-0.7874	0	0
				CHANNELS 3  Zrotation Xrotation Yrotation
				JOINT LeftForeArm_x_joint
				{
					OFFSET	-1.29921	0	0
					CHANNELS 3  Zrotation Xrotation Yrotation
					JOINT LeftHand_x_joint
					{
						OFFSET	-1.03081	0	0
						CHANNELS 3  Zrotation Xrotation Yrotation
						JOINT LeftHandPinky1_x_joint
						{
							OFFSET	-0.281979	-0.013815	0
							CHANNELS 3  Zrotation Xrotation Yrotation
							JOINT LeftHandPinky1endsite_x_joint
							{
								OFFSET	-0.19685	0	0
								CHANNELS 3  Zrotation Xrotation Yrotation
								End Site
								{
									OFFSET	-0.0001	0	0
								}
							}
						}
						JOINT LeftHandIndex1_x_joint
						{
							OFFSET	-0.414743	0.013815	0
							CHANNELS 3  Zrotation Xrotation Yrotation
							JOINT LeftHandIndex1endsite_x_joint
							{
								OFFSET	-0.23622	0	0
								CHANNELS 3  Zrotation Xrotation Yrotation
								End Site
								{
									OFFSET	-0.0001	0	0
								}
							}
						}
					}
				}
			}
		}
		JOINT RightShoulder_x_joint
		{
			OFFSET	0	0	1.25984
			CHANNELS 3  Zrotation Xrotation Yrotation
			JOINT RightArm_x_joint
			{
				OFFSET	0.7874	0	0
				CHANNELS 3  Zrotation Xrotation Yrotation
				JOINT RightForeArm_x_joint
				{
					OFFSET	1.29921	0	0
					CHANNELS 3  Zrotation Xrotation Yrotation
					JOINT RightHand_x_joint
					{
						OFFSET	1.03081	0	0
						CHANNELS 3  Zrotation Xrotation Yrotation
						JOINT RightHandPinky1_x_joint
						{
							OFFSET	0.294832	-0.017528	0
							CHANNELS 3  Zrotation Xrotation Yrotation
							JOINT RightHandPinky1endsite_x_joint
							{
								OFFSET	0.19685	0	0
								CHANNELS 3  Zrotation Xrotation Yrotation
								End Site
								{
									OFFSET	0.0001	0	0
								}
							}
						}
						JOINT RightHandIndex1_x_joint
						{
							OFFSET	0.346188	0.017528	0
							CHANNELS 3  Zrotation Xrotation Yrotation
							JOINT RightHandIndex1endsite_x_joint
							{
								OFFSET	0.23622	0	0
								CHANNELS 3  Zrotation Xrotation Yrotation
								End Site
								{
									OFFSET	0.0001	0	0
								}
							}
						}
					}
				}
			}
		}
	}
	JOINT LeftUpLeg_x_joint
	{
		OFFSET	-0.408853	0	0
		CHANNELS 3  Zrotation Xrotation Yrotation
		JOINT LeftLeg_x_joint
		{
			OFFSET	0	0	-1.73605
			CHANNELS 3  Zrotation Xrotation Yrotation
			JOINT LeftFoot_x_joint
			{
				OFFSET	0	0	-1.61351
				CHANNELS 3  Zrotation Xrotation Yrotation
				JOINT LeftToeBase_x_joint
				{
					OFFSET	0	0.510779	-0.136863
					CHANNELS 3  Zrotation Xrotation Yrotation
					JOINT LeftToeBaseendsite_x_joint
					{
						OFFSET	0	0.177165	0
						CHANNELS 3  Zrotation Xrotation Yrotation
						End Site
						{
							OFFSET	0	0.0001	0
						}
					}
				}
			}
		}
	}
	JOINT RightUpLeg_x_joint
	{
		OFFSET	0.408853	0	0
		CHANNELS 3  Zrotation Xrotation Yrotation
		JOINT RightLeg_x_joint
		{
			OFFSET	0	0	-1.73605
			CHANNELS 3  Zrotation Xrotation Yrotation
			JOINT RightFoot_x_joint
			{
				OFFSET	0	0	-1.61351
				CHANNELS 3  Zrotation Xrotation Yrotation
				JOINT RightToeBase_x_joint
				{
					OFFSET	0	0.510779	-0.136863
					CHANNELS 3  Zrotation Xrotation Yrotation
					JOINT RightToeBaseendsite_x_joint
					{
						OFFSET	0	0.177165	0
						CHANNELS 3  Zrotation Xrotation Yrotation
						End Site
						{
							OFFSET	0	0.0001	0
						}
					}
				}
			}
		}
	}
}
MOTION
Frames:	5
Frame Time: 1
-1.38101	3.71238	3.63411	-3.15381	-75.9739	1.70968	-13.4607	-28.2693	-7.11813	15.5255	-2.67113	-1.15317	-0	0	-0	5.50699	-25.6274	8.33021	-5.44692	24.1248	-75.0384	-42.0503	-23.4115	-8.66472e-15	9.84911	2.95996	16.5641	-0.236694	0.313603	-52.9557	-0	0	-0	-12.18	13.5093	-47.263	-0	0	-0	-4.01806	-32.1038	-3.62786	50.1273	19.045	48.9234	29.0261	31.9715	-3.74928e-15	-7.62751	3.81828	-26.4395	-2.96987	-3.47392	49.4298	-0	0	-0	22.8337	11.9179	26.1261	-0	0	-0	1.01448	-13.0688	-2.92585	-1.76422e-16	-16.0661	8.08061e-17	-1.65018	8.55453	4.03937	3.35649e-16	10.4585	3.41116e-16	-0	0	-0	-10.7079	6.10755	-4.38872	-1.92849e-15	-50.4902	-2.49961e-15	2.02485	3.59146	6.84305	-7.70025e-16	17.8904	2.50662e-15	-0	0	-0
-1.38944	3.70456	3.47584	-1.17731	-76.1298	3.95675	-14.1163	-28.0321	-7.73272	15.805	-2.50583	-0.742742	-0	0	-0	5.5335	-25.4042	8.66331	-4.40694	26.0983	-75.3046	-44.0963	-22.8154	-2.07032e-14	9.93717	3.04271	16.8556	-0.288945	0.387009	-53.2536	-0	0	-0	-12.045	12.9969	-46.506	-0	0	-0	-3.41856	-30.4055	-3.25494	48.6859	17.3562	51.0244	28.4008	32.0115	-3.75091e-15	-7.20025	3.56846	-26.229	-3.44211	-3.97863	49.0846	-0	0	-0	22.4626	11.9338	26.5707	-0	0	-0	0.148455	-16.8251	-3.4399	3.47516e-16	-13.3323	-2.17059e-16	-0.926762	8.92191	-0.755517	-0	10.6871	-0	-0	0	-0	-11.7358	8.02983	-3.32418	4.77083e-15	-39.2142	-0	1.62476	3.26597	6.72937	-5.28687e-16	18.3893	1.67586e-15	-0	0	-0
-1.40019	3.68595	3.31513	2.3051	-76.4696	8.24756	-15.1453	-27.3702	-8.81855	15.86	-2.50479	-0.199761	-0	0	-0	5.1407	-24.1594	8.95881	-4.30824	26.3423	-75.3049	-45.701	-22.334	-0	9.76825	3.09302	17.4023	-0.464883	0.632711	-53.6957	-0	0	-0	-12.0356	13.5134	-47.6189	-0	0	-0	-2.88829	-28.6988	-2.87231	46.961	15.7344	53.4634	27.901	32.0175	3.75116e-15	-7.77245	3.98392	-26.9796	-2.52876	-3.07509	50.504	-0	0	-0	22.4309	12.8738	28.3621	-0	0	-0	-0.535372	-20.1827	-4.40708	-0	-10.936	-0	-0.615909	9.40684	-4.05992	-5.76814e-17	10.9485	3.03705e-16	-0	0	-0	-12.9409	9.01538	-2.94698	1.20659e-15	-25.759	-8.8287e-16	0.974409	2.24377	8.23678	-3.25796e-15	21.2753	2.13323e-16	-0	0	-0
-1.40671	3.6562	3.15285	7.40618	-77.1309	14.0458	-15.933	-26.2449	-9.30411	15.589	-2.70052	0.0162662	-0	0	-0	4.66353	-23.398	9.23005	-4.99272	26.3593	-75.1878	-47.0314	-22.0302	-0	9.37307	3.00394	17.6138	-0.252747	0.345166	-53.7842	-0	0	-0	-11.8539	13.286	-47.5944	-0	0	-0	-2.86994	-27.4931	-2.84072	46.0133	14.075	55.5237	27.5237	32.2903	-4.703e-15	-7.54037	3.82473	-26.7448	-2.74541	-3.28589	50.0826	-0	0	-0	22.3727	12.4941	27.7263	-0	0	-0	-1.89187	-22.7552	-5.17883	-1.06766e-16	-9.38385	-6.54813e-16	-1.5769	11.0445	-2.19756	3.68766e-16	10.9347	1.51845e-16	-0	0	-0	-14.8101	9.33341	-2.35531	-3.2741e-16	-11.6337	-1.62363e-15	2.71348	1.33791	9.0617	-1.09171e-15	19.7123	-1.47811e-15	-0	0	-0
-1.40651	3.61958	2.98252	13.2239	-77.5569	20.7336	-16.8383	-25.1675	-10.0541	15.4074	-2.75944	0.367976	-0	0	-0	4.60668	-23.4719	9.55946	-6.54811	26.5389	-74.5647	-48.1809	-21.8037	-6.85121e-15	9.31058	2.92598	17.295	-0.197218	0.267359	-53.5857	-0	0	-0	-11.7413	13.1981	-47.6885	-0	0	-0	-2.24863	-25.4007	-2.49205	44.3771	11.8062	58.5188	27.3084	31.693	-4.67247e-15	-7.57248	3.75871	-26.249	-2.83523	-3.37471	49.9248	-0	0	-0	22.3211	12.3569	27.5305	-0	0	-0	-2.52446	-24.9388	-5.47306	9.06425e-16	-9.08757	7.04592e-16	-3.0501	12.3456	-2.80617	1.04535e-16	11.6925	-2.53746e-17	-0	0	-0	-16.6338	9.27296	-1.48311	-1.59028e-15	-1.32142	-0	2.14369	0.0922382	11.6514	-3.04514e-15	17.2257	-5.82735e-15	-0	0	-0
